<?xml version="1.0" encoding="utf-8"?>
<!-- Generator: Adobe Illustrator 17.1.0, SVG Export Plug-In . SVG Version: 6.00 Build 0)  -->
<!DOCTYPE svg PUBLIC "-//W3C//DTD SVG 1.1//EN" "http://www.w3.org/Graphics/SVG/1.1/DTD/svg11.dtd">
<svg version="1.1" id="Layer_1" xmlns="http://www.w3.org/2000/svg" xmlns:xlink="http://www.w3.org/1999/xlink" x="0px" y="0px"
	 viewBox="0 0 612 792" enable-background="new 0 0 612 792" xml:space="preserve">
<g>
	<g>
		<path fill="#007984" d="M306,90C137,90,0,227,0,396c0,169,137,306,306,306s306-137,306-306C612,227,475,90,306,90z M306,197.5
			l181.1,112.9H124.9L306,197.5z M489.3,490.7L489.3,490.7c0,18.1-14.7,32.8-32.8,32.8H155.5c-18.1,0-32.8-14.7-32.8-32.8V317.6
			c0-1.9,0.2-3.8,0.5-5.6l173,107.9c0.2,0.1,0.4,0.2,0.7,0.3c0.2,0.1,0.5,0.2,0.7,0.4c1.2,0.6,2.5,1.1,3.8,1.5
			c0.1,0,0.3,0.1,0.4,0.1c1.4,0.3,2.8,0.5,4.3,0.5h0c0,0,0,0,0,0c1.4,0,2.9-0.2,4.3-0.5c0.1,0,0.3,0,0.4-0.1
			c1.3-0.3,2.5-0.8,3.8-1.5c0.2-0.1,0.5-0.2,0.7-0.4c0.2-0.1,0.4-0.2,0.7-0.3l173-107.9c0.3,1.8,0.5,3.7,0.5,5.6L489.3,490.7
			L489.3,490.7L489.3,490.7z"/>
	</g>
</g>
</svg>
