<?xml version="1.0" encoding="utf-8"?>
<!-- Generator: Adobe Illustrator 17.1.0, SVG Export Plug-In . SVG Version: 6.00 Build 0)  -->
<!DOCTYPE svg PUBLIC "-//W3C//DTD SVG 1.1//EN" "http://www.w3.org/Graphics/SVG/1.1/DTD/svg11.dtd">
<svg version="1.1" id="Layer_1" xmlns="http://www.w3.org/2000/svg" xmlns:xlink="http://www.w3.org/1999/xlink" x="0px" y="0px"
	 viewBox="0 0 75 75" enable-background="new 0 0 75 75" xml:space="preserve">
<g>
	<path fill="#127985" d="M51.7,28c-0.1,13.9-11.3,25.3-25.4,25.2C12.3,53,1.4,42.1,1.3,27.8C1.2,13.9,12.6,2.6,26.5,2.6
		C40.4,2.6,51.7,14,51.7,28z M26.5,46.7c10.4,0,18.7-8.3,18.7-18.7c0-10.5-8.3-18.9-18.8-18.9c-10.3,0-18.8,8.5-18.7,18.8
		C7.7,38.2,15.9,46.7,26.5,46.7z"/>
	<path fill="#127985" d="M42.8,50.1c2-1.6,3.8-3.3,5.4-5.3c0.5-0.7,0.8-0.1,1.1,0.2c3.5,3.2,7.1,6.5,10.6,9.7c1.7,1.5,3.3,3.1,5,4.6
		c0.6,0.5,0.7,0.8,0.1,1.4c-2,2-4,4-6,6c-0.3,0.3-0.6,0.7-1,0.1c-0.1-0.2-0.3-0.3-0.4-0.5C52.7,60.9,47.8,55.5,42.8,50.1z"/>
	<path fill="#127985" d="M67.5,75c-1,0-2.4-0.5-3.4-1.7c-1.3-1.4-2.5-2.8-3.8-4.2c-0.4-0.4-0.4-0.7,0-1.1c2.1-2.1,4.2-4.2,6.3-6.3
		c0.5-0.5,0.7-0.4,1.2,0c1.3,1.3,2.7,2.5,4.1,3.8c1.8,1.7,2.4,3.8,1.6,5.9C72.5,73.5,70.3,75,67.5,75z"/>
	<path fill="#127985" d="M26.5,13.6c7.3,0.1,13.4,5.7,14,13c0.1,0.7,0.2,1.4-0.7,1.5C39,28.1,39,27.3,39,26.7
		c-0.9-8.7-9.9-13.9-17.8-10.3c-0.3,0.1-0.5,0.2-0.8,0.4c-0.5,0.3-1,0.3-1.2-0.3c-0.3-0.6,0-0.9,0.5-1.2c1.4-0.7,2.9-1.3,4.4-1.5
		C24.9,13.7,25.7,13.7,26.5,13.6z"/>
</g>
</svg>
