<?xml version="1.0" encoding="utf-8"?>
<!-- Generator: Adobe Illustrator 17.0.0, SVG Export Plug-In . SVG Version: 6.00 Build 0)  -->
<!DOCTYPE svg PUBLIC "-//W3C//DTD SVG 1.1//EN" "http://www.w3.org/Graphics/SVG/1.1/DTD/svg11.dtd">
<svg version="1.1" id="Layer_1" xmlns="http://www.w3.org/2000/svg" xmlns:xlink="http://www.w3.org/1999/xlink" x="0px" y="0px"
	 width="75px" height="75px" viewBox="0 0 75 75" enable-background="new 0 0 75 75" xml:space="preserve">
<g>
	<path fill="#127985" d="M2.506,72.356c0.727-3.378,1.394-6.483,2.062-9.587c0.323-1.502,0.702-2.995,0.945-4.51
		c0.085-0.533-0.009-1.207-0.277-1.669c-9.245-15.957-6.055-35.737,8.036-47.62c21.778-18.367,54.84-7.083,60.857,20.695
		c4.492,20.741-8.84,40.654-29.697,44.629c-10.245,1.953-19.741-0.171-28.347-6.085c-0.772-0.53-1.382-0.613-2.243-0.267
		C10.163,69.42,6.455,70.826,2.506,72.356z M23.749,29.165c1.467,0,2.829-0.134,4.154,0.03c2.208,0.273,3.371-0.55,4.253-2.646
		c1.396-3.319,5.127-4.436,8.409-2.872c3.062,1.459,3.888,4.978,1.757,7.627c-0.537,0.668-1.176,1.261-1.809,1.844
		c-1.416,1.307-2.911,2.532-4.276,3.889c-2.684,2.667-3.062,6.111-3.087,9.651c-0.006,0.816,0.361,1.112,1.179,1.082
		c1.424-0.052,2.854-0.073,4.276,0.004c1.085,0.059,1.457-0.341,1.458-1.414c0.002-2.708,1.119-4.889,3.196-6.653
		c1.763-1.497,3.475-3.065,5.097-4.711c1.409-1.43,2.468-3.117,2.741-5.18c0.587-4.437-1.034-7.99-4.776-10.281
		c-5.343-3.271-10.976-3.296-16.505-0.402C25.877,21.192,23.898,24.604,23.749,29.165z M40.968,53.894
		c-0.018-2.4-1.829-4.182-4.214-4.146c-2.392,0.036-4.183,1.85-4.169,4.222c0.014,2.394,1.786,4.117,4.236,4.12
		C39.222,58.092,40.986,56.307,40.968,53.894z"/>
</g>
</svg>
