<?xml version="1.0" encoding="utf-8"?>
<!-- Generator: Adobe Illustrator 17.0.0, SVG Export Plug-In . SVG Version: 6.00 Build 0)  -->
<!DOCTYPE svg PUBLIC "-//W3C//DTD SVG 1.1//EN" "http://www.w3.org/Graphics/SVG/1.1/DTD/svg11.dtd">
<svg version="1.1" id="Layer_1" xmlns="http://www.w3.org/2000/svg" xmlns:xlink="http://www.w3.org/1999/xlink" x="0px" y="0px"
	 width="75px" height="75px" viewBox="0 0 75 75" enable-background="new 0 0 75 75" xml:space="preserve">
<g>
	<path fill="#127985" d="M2.628,69.663c-0.07-1.966,1.047-3.676,1.775-5.479c2.984-7.397,5.984-14.789,9.072-22.146
		c2.702-6.436,5.172-12.962,8.054-19.33c0.787-1.738,2.406-2.285,4.232-1.076c0.642,0.425,1.239,0.929,1.796,1.457
		c3.661,3.469,7.203,7.054,11.013,10.377c0.508,0.443,0.524,0.665,0.084,1.268c-1.339,1.836-3.544,2.338-5.306,3.509
		c-1.596,1.061-2.604,2.667-2.965,4.481c-0.484,2.432,1.35,3.66,3.863,2.707c2.432-0.923,4.306-2.441,5.024-4.924
		c0.423-1.461,1.686-2.226,2.5-3.353c0.391-0.541,0.641,0.027,0.857,0.232c1.817,1.724,3.615,3.466,5.419,5.203
		c2.996,2.885,6.063,5.706,8.965,8.676c1.954,2,1.563,3.437-0.606,4.677c-0.473,0.27-0.975,0.509-1.49,0.694
		c-10.547,3.783-21.11,7.527-31.643,11.345c-5.058,1.833-10.057,3.833-15.208,5.4c-2.485,0.756-4.477,0.116-5.286-2.031
		C2.573,70.814,2.712,70.28,2.628,69.663z"/>
	<path fill="#127985" d="M69.446,1.323c2.63,0.092,4.089,1.161,5.015,2.88c1.082,2.009,0.43,3.858-1.023,5.4
		c-4.296,4.559-8.357,9.329-12.977,13.599c-2.391,2.21-4.898,4.29-7.641,6.099c-0.544,0.358-0.891,0.464-1.393-0.021
		c-1.668-1.611-3.364-3.194-5.06-4.778c-0.271-0.254-0.231-0.418-0.04-0.725c1.434-2.309,3.137-4.43,4.964-6.449
		c1.792-1.981,3.642-3.921,5.579-5.769c3.113-2.969,6.29-5.877,9.502-8.746C67.345,1.944,68.494,1.216,69.446,1.323z"/>
	<path fill="#127985" d="M31.018,42.891c0.378-1.875,1.477-3.789,3.789-4.786c1.615-0.696,3.061-1.464,4.213-2.842
		c1.192-1.426,2.689-2.612,3.999-3.952c0.494-0.505,0.762-0.449,1.236,0.017c1.287,1.263,1.297,1.227,0.028,2.483
		c-1.562,1.547-3.1,3.117-4.642,4.683c-0.496,0.504-0.758,1.146-0.954,1.79c-0.79,2.59-2.79,3.959-5.259,4.798
		C31.997,45.568,31.024,44.812,31.018,42.891z"/>
	<path fill="#127985" d="M42.545,28.461c0.66-1.163,1.765-1.861,2.498-2.851c0.419-0.567,0.607-0.29,0.916,0.009
		c1.243,1.204,2.484,2.411,3.742,3.601c1.373,1.299,1.381,1.291,0.032,2.59c-1.825,1.757-1.821,1.754-3.695-0.04
		C44.867,30.649,43.685,29.54,42.545,28.461z"/>
</g>
</svg>
