<?xml version="1.0" encoding="utf-8"?>
<!-- Generator: Adobe Illustrator 17.1.0, SVG Export Plug-In . SVG Version: 6.00 Build 0)  -->
<!DOCTYPE svg PUBLIC "-//W3C//DTD SVG 1.1//EN" "http://www.w3.org/Graphics/SVG/1.1/DTD/svg11.dtd">
<svg version="1.1" id="Layer_1" xmlns="http://www.w3.org/2000/svg" xmlns:xlink="http://www.w3.org/1999/xlink" x="0px" y="0px"
	 viewBox="0 0 612 792" enable-background="new 0 0 612 792" xml:space="preserve">
<g>
	<g>
		<path fill="#007984" d="M306,90C137,90,0,227,0,396c0,169,137,306,306,306s306-137,306-306C612,227,475,90,306,90z M306.9,540.4
			L306.9,540.4l-1.9,0H174.4c0-95.6,84-95.6,102.6-120.6l2.1-11.4c-26.2-13.3-44.6-45.2-44.6-82.6c0-49.3,32.1-89.2,71.6-89.2
			s71.6,40,71.6,89.2c0,37.1-18.1,68.9-44,82.3l2.4,13c20.4,23.8,101.6,25.3,101.6,119.3L306.9,540.4L306.9,540.4z"/>
	</g>
</g>
</svg>
